<svg width="103" height="36" viewBox="0 0 103 36" fill="none" xmlns="http://www.w3.org/2000/svg">
<path d="M6.02 28.192C4.66 28.192 3.564 27.784 2.732 26.968C1.916 26.136 1.508 25.04 1.508 23.68V15.496C1.508 14.12 1.916 13.032 2.732 12.232C3.564 11.416 4.66 11.008 6.02 11.008C7.396 11.008 8.5 11.416 9.332 12.232C10.164 13.032 10.58 14.12 10.58 15.496V15.784C10.58 15.864 10.548 15.936 10.484 16C10.436 16.064 10.372 16.096 10.292 16.096L8.06 16.192C7.868 16.192 7.772 16.096 7.772 15.904V15.304C7.772 14.744 7.612 14.288 7.292 13.936C6.972 13.584 6.548 13.408 6.02 13.408C5.508 13.408 5.092 13.584 4.772 13.936C4.452 14.288 4.292 14.744 4.292 15.304V23.896C4.292 24.456 4.452 24.912 4.772 25.264C5.092 25.616 5.508 25.792 6.02 25.792C6.548 25.792 6.972 25.616 7.292 25.264C7.612 24.912 7.772 24.456 7.772 23.896V23.296C7.772 23.216 7.796 23.152 7.844 23.104C7.908 23.04 7.98 23.008 8.06 23.008L10.292 23.104C10.372 23.104 10.436 23.136 10.484 23.2C10.548 23.248 10.58 23.312 10.58 23.392V23.68C10.58 25.04 10.164 26.136 9.332 26.968C8.5 27.784 7.396 28.192 6.02 28.192ZM17.5888 15.592C18.0208 15.592 18.3568 15.672 18.5968 15.832C18.7248 15.912 18.7728 16.032 18.7408 16.192L18.3568 18.424C18.3408 18.616 18.2288 18.672 18.0208 18.592C17.7968 18.528 17.5888 18.496 17.3968 18.496C17.2048 18.496 17.0288 18.52 16.8688 18.568C16.4208 18.632 16.0528 18.888 15.7648 19.336C15.4928 19.768 15.3568 20.288 15.3568 20.896V27.688C15.3568 27.768 15.3248 27.84 15.2608 27.904C15.2128 27.952 15.1488 27.976 15.0688 27.976H12.8608C12.7808 27.976 12.7088 27.952 12.6448 27.904C12.5968 27.84 12.5728 27.768 12.5728 27.688V16.024C12.5728 15.944 12.5968 15.88 12.6448 15.832C12.7088 15.768 12.7808 15.736 12.8608 15.736H15.0688C15.1488 15.736 15.2128 15.768 15.2608 15.832C15.3248 15.88 15.3568 15.944 15.3568 16.024V17.128C15.3568 17.192 15.3728 17.232 15.4048 17.248C15.4368 17.248 15.4608 17.216 15.4768 17.152C15.9088 16.112 16.6128 15.592 17.5888 15.592ZM28.2596 22.6C28.2596 22.68 28.2276 22.752 28.1636 22.816C28.1156 22.864 28.0516 22.888 27.9716 22.888H22.6676C22.5876 22.888 22.5476 22.928 22.5476 23.008V24.088C22.5476 24.584 22.6836 24.992 22.9556 25.312C23.2276 25.632 23.5796 25.792 24.0116 25.792C24.3796 25.792 24.6916 25.68 24.9476 25.456C25.2196 25.216 25.3956 24.912 25.4756 24.544C25.5236 24.384 25.6276 24.304 25.7876 24.304L27.9236 24.4C28.0036 24.4 28.0676 24.432 28.1156 24.496C28.1796 24.544 28.2036 24.616 28.1876 24.712C28.0756 25.832 27.6676 26.696 26.9636 27.304C26.2596 27.896 25.2756 28.192 24.0116 28.192C22.6996 28.192 21.6596 27.848 20.8916 27.16C20.1396 26.456 19.7636 25.504 19.7636 24.304V19.432C19.7636 18.264 20.1396 17.328 20.8916 16.624C21.6596 15.904 22.6996 15.544 24.0116 15.544C25.3236 15.544 26.3556 15.904 27.1076 16.624C27.8756 17.328 28.2596 18.264 28.2596 19.432V22.6ZM24.0116 17.944C23.5796 17.944 23.2276 18.104 22.9556 18.424C22.6836 18.744 22.5476 19.152 22.5476 19.648V20.728C22.5476 20.808 22.5876 20.848 22.6676 20.848H25.3796C25.4596 20.848 25.4996 20.808 25.4996 20.728V19.648C25.4996 19.136 25.3636 18.728 25.0916 18.424C24.8196 18.104 24.4596 17.944 24.0116 17.944ZM32.1485 28C31.9725 28 31.8685 27.912 31.8365 27.736L29.2685 16.024V15.928C29.2685 15.784 29.3565 15.712 29.5325 15.712H31.6445C31.8365 15.712 31.9405 15.8 31.9565 15.976L33.2045 23.44C33.2205 23.488 33.2445 23.512 33.2765 23.512C33.3085 23.512 33.3325 23.488 33.3485 23.44L34.6685 15.976C34.6845 15.8 34.7885 15.712 34.9805 15.712H36.8525C37.0445 15.712 37.1485 15.8 37.1645 15.976L38.5085 23.464C38.5245 23.512 38.5485 23.536 38.5805 23.536C38.6125 23.536 38.6365 23.512 38.6525 23.464L39.9245 15.976C39.9405 15.8 40.0445 15.712 40.2365 15.712L42.3245 15.76C42.5325 15.76 42.6125 15.864 42.5645 16.072L39.9965 27.736C39.9645 27.912 39.8605 28 39.6845 28H37.5245C37.3325 28 37.2285 27.912 37.2125 27.736L35.9405 20.728C35.9245 20.68 35.9005 20.656 35.8685 20.656C35.8365 20.656 35.8125 20.68 35.7965 20.728L34.5485 27.736C34.5325 27.912 34.4285 28 34.2365 28H32.1485Z" fill="#F4F4F4"/>
<path d="M48.9 28.192C47.668 28.192 46.676 27.816 45.924 27.064C45.188 26.312 44.82 25.304 44.82 24.04V15.136C44.82 13.888 45.188 12.888 45.924 12.136C46.676 11.384 47.668 11.008 48.9 11.008C50.148 11.008 51.14 11.384 51.876 12.136C52.628 12.872 53.004 13.872 53.004 15.136V15.544C53.004 15.704 52.924 15.784 52.764 15.784L51.516 15.856C51.356 15.856 51.276 15.776 51.276 15.616V15.016C51.276 14.264 51.06 13.656 50.628 13.192C50.196 12.728 49.62 12.496 48.9 12.496C48.196 12.496 47.62 12.728 47.172 13.192C46.74 13.656 46.524 14.264 46.524 15.016V24.184C46.524 24.936 46.74 25.544 47.172 26.008C47.62 26.472 48.196 26.704 48.9 26.704C49.62 26.704 50.196 26.472 50.628 26.008C51.06 25.544 51.276 24.936 51.276 24.184V23.584C51.276 23.424 51.356 23.344 51.516 23.344L52.764 23.416C52.924 23.416 53.004 23.496 53.004 23.656V24.04C53.004 25.304 52.628 26.312 51.876 27.064C51.124 27.816 50.132 28.192 48.9 28.192ZM58.8977 28.192C57.7457 28.192 56.8257 27.856 56.1377 27.184C55.4657 26.512 55.1297 25.624 55.1297 24.52V19.36C55.1297 18.272 55.4737 17.384 56.1617 16.696C56.8497 16.008 57.7617 15.664 58.8977 15.664C60.0497 15.664 60.9697 16.008 61.6577 16.696C62.3457 17.384 62.6897 18.272 62.6897 19.36V24.52C62.6897 25.624 62.3457 26.512 61.6577 27.184C60.9697 27.856 60.0497 28.192 58.8977 28.192ZM58.8977 26.68C59.5057 26.68 60.0017 26.472 60.3857 26.056C60.7857 25.64 60.9857 25.088 60.9857 24.4V19.456C60.9857 18.768 60.7857 18.216 60.3857 17.8C60.0017 17.368 59.5057 17.152 58.8977 17.152C58.2897 17.152 57.7937 17.368 57.4097 17.8C57.0257 18.216 56.8337 18.768 56.8337 19.456V24.4C56.8337 25.088 57.0257 25.64 57.4097 26.056C57.7937 26.472 58.2897 26.68 58.8977 26.68ZM69.6746 15.688C70.6506 15.688 71.4026 16.024 71.9306 16.696C72.4746 17.368 72.7466 18.304 72.7466 19.504V27.76C72.7466 27.92 72.6666 28 72.5066 28H71.2826C71.1226 28 71.0426 27.92 71.0426 27.76V19.648C71.0426 18.864 70.8666 18.256 70.5146 17.824C70.1786 17.392 69.7066 17.176 69.0986 17.176C68.4586 17.176 67.9546 17.408 67.5866 17.872C67.2346 18.336 67.0586 18.968 67.0586 19.768V27.76C67.0586 27.92 66.9786 28 66.8186 28H65.5946C65.4346 28 65.3546 27.92 65.3546 27.76V16.096C65.3546 15.936 65.4346 15.856 65.5946 15.856H66.8186C66.9786 15.856 67.0586 15.936 67.0586 16.096V16.864C67.0586 16.896 67.0746 16.92 67.1066 16.936C67.1386 16.952 67.1626 16.936 67.1786 16.888C67.4666 16.488 67.8266 16.192 68.2586 16C68.7066 15.792 69.1786 15.688 69.6746 15.688ZM79.7985 16.888C79.7985 17.048 79.7185 17.128 79.5585 17.128H77.7345C77.6705 17.128 77.6385 17.16 77.6385 17.224V24.568C77.6385 25.304 77.7665 25.816 78.0225 26.104C78.2785 26.376 78.6705 26.504 79.1985 26.488H79.4385C79.5985 26.488 79.6785 26.568 79.6785 26.728V27.76C79.6785 27.92 79.5985 28 79.4385 28H78.8385C77.8945 28 77.1745 27.8 76.6785 27.4C76.1985 26.984 75.9585 26.208 75.9585 25.072V17.224C75.9585 17.16 75.9265 17.128 75.8625 17.128H74.9265C74.7665 17.128 74.6865 17.048 74.6865 16.888V16.096C74.6865 15.936 74.7665 15.856 74.9265 15.856H75.8625C75.9265 15.856 75.9585 15.824 75.9585 15.76V13.072C75.9585 12.912 76.0385 12.832 76.1985 12.832H77.3985C77.5585 12.832 77.6385 12.912 77.6385 13.072V15.76C77.6385 15.824 77.6705 15.856 77.7345 15.856H79.5585C79.7185 15.856 79.7985 15.936 79.7985 16.096V16.888ZM86.0289 15.736C86.4289 15.736 86.7729 15.824 87.0609 16C87.1729 16.064 87.2129 16.168 87.1809 16.312L86.8929 17.56C86.8769 17.704 86.7809 17.752 86.6049 17.704C86.4129 17.608 86.1729 17.56 85.8849 17.56C85.7569 17.56 85.6609 17.568 85.5969 17.584C85.0209 17.616 84.5489 17.92 84.1809 18.496C83.8129 19.056 83.6289 19.744 83.6289 20.56V27.76C83.6289 27.92 83.5489 28 83.3889 28H82.1649C82.0049 28 81.9249 27.92 81.9249 27.76V16.096C81.9249 15.936 82.0049 15.856 82.1649 15.856H83.3889C83.5489 15.856 83.6289 15.936 83.6289 16.096V17.536C83.6289 17.584 83.6369 17.608 83.6529 17.608C83.6849 17.608 83.7169 17.592 83.7489 17.56C84.2129 16.344 84.9729 15.736 86.0289 15.736ZM92.343 28.192C91.191 28.192 90.271 27.856 89.583 27.184C88.911 26.512 88.575 25.624 88.575 24.52V19.36C88.575 18.272 88.919 17.384 89.607 16.696C90.295 16.008 91.207 15.664 92.343 15.664C93.495 15.664 94.415 16.008 95.103 16.696C95.791 17.384 96.135 18.272 96.135 19.36V24.52C96.135 25.624 95.791 26.512 95.103 27.184C94.415 27.856 93.495 28.192 92.343 28.192ZM92.343 26.68C92.951 26.68 93.447 26.472 93.831 26.056C94.231 25.64 94.431 25.088 94.431 24.4V19.456C94.431 18.768 94.231 18.216 93.831 17.8C93.447 17.368 92.951 17.152 92.343 17.152C91.735 17.152 91.239 17.368 90.855 17.8C90.471 18.216 90.279 18.768 90.279 19.456V24.4C90.279 25.088 90.471 25.64 90.855 26.056C91.239 26.472 91.735 26.68 92.343 26.68ZM98.8959 28C98.7359 28 98.6559 27.92 98.6559 27.76V11.44C98.6559 11.28 98.7359 11.2 98.8959 11.2H100.12C100.28 11.2 100.36 11.28 100.36 11.44V27.76C100.36 27.92 100.28 28 100.12 28H98.8959Z" fill="#F4F4F4"/>
</svg>
