<svg width="25" height="24" viewBox="0 0 25 24" fill="none" xmlns="http://www.w3.org/2000/svg">
<g id="Icons/Notification">
<g id="Vector">
<path fill-rule="evenodd" clip-rule="evenodd" d="M11.2036 19.0822C11.5608 19.3202 12.1117 19.5 12.7703 19.5C13.4288 19.5 13.9798 19.3202 14.3369 19.0822C14.701 18.8394 14.7703 18.6139 14.7703 18.5H16.7703C16.7703 19.4907 16.168 20.2651 15.4463 20.7463C14.7176 21.232 13.7686 21.5 12.7703 21.5C11.7719 21.5 10.8229 21.232 10.0942 20.7463C9.37257 20.2651 8.77026 19.4907 8.77026 18.5H10.7703C10.7703 18.6139 10.8395 18.8394 11.2036 19.0822Z" fill="#F4F4F4"/>
<path fill-rule="evenodd" clip-rule="evenodd" d="M9.81094 5.29394C9.20854 5.7723 8.59832 6.6502 8.59832 8.5C8.59832 11.3451 7.99775 13.7123 7.2543 15.5H17.663C16.8925 13.6706 16.2336 11.2594 16.2336 8.5C16.2336 6.90037 15.6568 5.97772 14.9815 5.41174C14.2393 4.78963 13.2483 4.5 12.416 4.5C11.4793 4.5 10.5043 4.74331 9.81094 5.29394ZM12.416 2.5C10.0299 2.5 6.6895 3.7 6.6895 8.5C6.6895 11.5264 5.93069 13.9168 5.1307 15.5207C4.73688 16.3103 5.28013 17.5 6.13042 17.5H18.9306C19.746 17.5 20.253 16.4406 19.8698 15.6865C19.0113 13.9972 18.1424 11.4686 18.1424 8.5C18.1424 4.1 14.802 2.5 12.416 2.5Z" fill="#F4F4F4"/>
<path d="M17.5 9C17.5 11.7614 15.2614 14 12.5 14C9.73858 14 7.5 11.7614 7.5 9C7.5 6.23858 9.73858 4 12.5 4C15.2614 4 17.5 6.23858 17.5 9Z" fill="#F4F4F4"/>
<path d="M6.84449 14.7369L7.81101 11.193C7.92394 10.7789 8.28856 10.483 8.71705 10.4578L15.7349 10.045C16.1863 10.0185 16.5994 10.2981 16.7423 10.727L18.0613 14.6838C18.2771 15.3313 17.7951 16 17.1126 16H7.80925C7.14988 16 6.67099 15.373 6.84449 14.7369Z" fill="#F4F4F4"/>
</g>
</g>
</svg>
